%TF.GenerationSoftware,KiCad,Pcbnew,8.0.2*%
%TF.CreationDate,2024-11-05T19:48:56-03:00*%
%TF.ProjectId,BluetoothBoardSTM32,426c7565-746f-46f7-9468-426f61726453,rev?*%
%TF.SameCoordinates,PX2e0e41fPY5a51da2*%
%TF.FileFunction,Paste,Top*%
%TF.FilePolarity,Positive*%
%FSLAX46Y46*%
G04 Gerber Fmt 4.6, Leading zero omitted, Abs format (unit mm)*
G04 Created by KiCad (PCBNEW 8.0.2) date 2024-11-05 19:48:56*
%MOMM*%
%LPD*%
G01*
G04 APERTURE LIST*
G04 Aperture macros list*
%AMRoundRect*
0 Rectangle with rounded corners*
0 $1 Rounding radius*
0 $2 $3 $4 $5 $6 $7 $8 $9 X,Y pos of 4 corners*
0 Add a 4 corners polygon primitive as box body*
4,1,4,$2,$3,$4,$5,$6,$7,$8,$9,$2,$3,0*
0 Add four circle primitives for the rounded corners*
1,1,$1+$1,$2,$3*
1,1,$1+$1,$4,$5*
1,1,$1+$1,$6,$7*
1,1,$1+$1,$8,$9*
0 Add four rect primitives between the rounded corners*
20,1,$1+$1,$2,$3,$4,$5,0*
20,1,$1+$1,$4,$5,$6,$7,0*
20,1,$1+$1,$6,$7,$8,$9,0*
20,1,$1+$1,$8,$9,$2,$3,0*%
G04 Aperture macros list end*
%ADD10RoundRect,0.150000X-0.150000X0.512500X-0.150000X-0.512500X0.150000X-0.512500X0.150000X0.512500X0*%
%ADD11RoundRect,0.140000X-0.170000X0.140000X-0.170000X-0.140000X0.170000X-0.140000X0.170000X0.140000X0*%
%ADD12R,1.700000X0.900000*%
%ADD13RoundRect,0.140000X-0.140000X-0.170000X0.140000X-0.170000X0.140000X0.170000X-0.140000X0.170000X0*%
%ADD14R,0.800000X0.900000*%
%ADD15RoundRect,0.135000X-0.185000X0.135000X-0.185000X-0.135000X0.185000X-0.135000X0.185000X0.135000X0*%
%ADD16RoundRect,0.068750X-0.068750X-0.281250X0.068750X-0.281250X0.068750X0.281250X-0.068750X0.281250X0*%
%ADD17RoundRect,0.061250X-0.163750X-0.061250X0.163750X-0.061250X0.163750X0.061250X-0.163750X0.061250X0*%
%ADD18RoundRect,0.147500X-0.172500X0.147500X-0.172500X-0.147500X0.172500X-0.147500X0.172500X0.147500X0*%
%ADD19RoundRect,0.140000X0.140000X0.170000X-0.140000X0.170000X-0.140000X-0.170000X0.140000X-0.170000X0*%
%ADD20RoundRect,0.135000X-0.135000X-0.185000X0.135000X-0.185000X0.135000X0.185000X-0.135000X0.185000X0*%
%ADD21RoundRect,0.150000X-0.512500X-0.150000X0.512500X-0.150000X0.512500X0.150000X-0.512500X0.150000X0*%
%ADD22RoundRect,0.225000X-0.225000X-0.250000X0.225000X-0.250000X0.225000X0.250000X-0.225000X0.250000X0*%
%ADD23RoundRect,0.225000X-0.250000X0.225000X-0.250000X-0.225000X0.250000X-0.225000X0.250000X0.225000X0*%
%ADD24RoundRect,0.218750X-0.218750X-0.381250X0.218750X-0.381250X0.218750X0.381250X-0.218750X0.381250X0*%
%ADD25RoundRect,0.225000X0.225000X0.250000X-0.225000X0.250000X-0.225000X-0.250000X0.225000X-0.250000X0*%
%ADD26RoundRect,0.147500X0.147500X0.172500X-0.147500X0.172500X-0.147500X-0.172500X0.147500X-0.172500X0*%
%ADD27RoundRect,0.250000X-0.275000X-0.250000X0.275000X-0.250000X0.275000X0.250000X-0.275000X0.250000X0*%
%ADD28RoundRect,0.250000X-0.850000X-0.275000X0.850000X-0.275000X0.850000X0.275000X-0.850000X0.275000X0*%
%ADD29RoundRect,0.250000X0.315000X-0.315000X0.315000X0.315000X-0.315000X0.315000X-0.315000X-0.315000X0*%
%ADD30RoundRect,0.062500X0.062500X-0.375000X0.062500X0.375000X-0.062500X0.375000X-0.062500X-0.375000X0*%
%ADD31RoundRect,0.062500X0.375000X-0.062500X0.375000X0.062500X-0.375000X0.062500X-0.375000X-0.062500X0*%
%ADD32RoundRect,0.150000X-0.425000X0.150000X-0.425000X-0.150000X0.425000X-0.150000X0.425000X0.150000X0*%
%ADD33RoundRect,0.075000X-0.500000X0.075000X-0.500000X-0.075000X0.500000X-0.075000X0.500000X0.075000X0*%
%ADD34O,2.100000X1.000000*%
%ADD35O,1.800000X1.000000*%
%ADD36RoundRect,0.140000X0.170000X-0.140000X0.170000X0.140000X-0.170000X0.140000X-0.170000X-0.140000X0*%
%ADD37R,0.600000X1.100000*%
%ADD38RoundRect,0.225000X0.250000X-0.225000X0.250000X0.225000X-0.250000X0.225000X-0.250000X-0.225000X0*%
G04 APERTURE END LIST*
D10*
%TO.C,U3*%
X13244605Y10982106D03*
X12294605Y10982106D03*
X11344605Y10982106D03*
X11344605Y8707106D03*
X13244605Y8707106D03*
%TD*%
D11*
%TO.C,C4*%
X36457105Y15207106D03*
X36457105Y14247106D03*
%TD*%
D12*
%TO.C,SW1*%
X20707105Y11707106D03*
X20707105Y8307106D03*
%TD*%
D13*
%TO.C,C10*%
X30027105Y9707106D03*
X30987105Y9707106D03*
%TD*%
D14*
%TO.C,X1*%
X37107105Y21007106D03*
X37107105Y19607106D03*
X38207105Y19607106D03*
X38207105Y21007106D03*
%TD*%
D15*
%TO.C,R1*%
X19557105Y6877106D03*
X19557105Y5857106D03*
%TD*%
D16*
%TO.C,FLT1*%
X42707105Y15957106D03*
D17*
X43319605Y15729606D03*
D16*
X43932105Y15957106D03*
D17*
X43319605Y16184606D03*
%TD*%
D11*
%TO.C,C16*%
X36722105Y17767106D03*
X36722105Y16807106D03*
%TD*%
D18*
%TO.C,L3*%
X30457105Y20677106D03*
X30457105Y19707106D03*
%TD*%
D19*
%TO.C,C8*%
X29257105Y20707106D03*
X28297105Y20707106D03*
%TD*%
D20*
%TO.C,R6*%
X3957105Y8957106D03*
X4977105Y8957106D03*
%TD*%
D21*
%TO.C,U2*%
X10732105Y17507106D03*
X10732105Y16557106D03*
X10732105Y15607106D03*
X13007105Y15607106D03*
X13007105Y16557106D03*
X13007105Y17507106D03*
%TD*%
D22*
%TO.C,C9*%
X32357105Y20407106D03*
X33907105Y20407106D03*
%TD*%
D23*
%TO.C,C1*%
X25457105Y10457106D03*
X25457105Y8907106D03*
%TD*%
D15*
%TO.C,R3*%
X38457105Y10727106D03*
X38457105Y9707106D03*
%TD*%
D24*
%TO.C,L2*%
X30282105Y22207106D03*
X32407105Y22207106D03*
%TD*%
D11*
%TO.C,C3*%
X40957105Y15957106D03*
X40957105Y14997106D03*
%TD*%
D25*
%TO.C,C13*%
X28557105Y22457106D03*
X27007105Y22457106D03*
%TD*%
D15*
%TO.C,R4*%
X34957105Y9707106D03*
X34957105Y8687106D03*
%TD*%
D19*
%TO.C,C14*%
X25907105Y17807106D03*
X24947105Y17807106D03*
%TD*%
D25*
%TO.C,C18*%
X13007105Y12957106D03*
X11457105Y12957106D03*
%TD*%
D11*
%TO.C,C12*%
X33507105Y9372106D03*
X33507105Y8412106D03*
%TD*%
D19*
%TO.C,C7*%
X28907105Y9707106D03*
X27947105Y9707106D03*
%TD*%
D26*
%TO.C,L1*%
X39957105Y15957106D03*
X38987105Y15957106D03*
%TD*%
D18*
%TO.C,D1*%
X39957105Y10677106D03*
X39957105Y9707106D03*
%TD*%
D27*
%TO.C,J1*%
X46707105Y15957106D03*
D28*
X48232105Y17432106D03*
X48232105Y14482106D03*
%TD*%
D20*
%TO.C,R7*%
X3957105Y21707106D03*
X4977105Y21707106D03*
%TD*%
D29*
%TO.C,U1*%
X29607105Y12607106D03*
X31007105Y12607106D03*
X32407105Y12607106D03*
X33807105Y12607106D03*
X29607105Y14007106D03*
X31007105Y14007106D03*
X32407105Y14007106D03*
X33807105Y14007106D03*
X29607105Y15407106D03*
X31007105Y15407106D03*
X32407105Y15407106D03*
X33807105Y15407106D03*
X29607105Y16807106D03*
X31007105Y16807106D03*
X32407105Y16807106D03*
X33807105Y16807106D03*
D30*
X28957105Y11269606D03*
X29457105Y11269606D03*
X29957105Y11269606D03*
X30457105Y11269606D03*
X30957105Y11269606D03*
X31457105Y11269606D03*
X31957105Y11269606D03*
X32457105Y11269606D03*
X32957105Y11269606D03*
X33457105Y11269606D03*
X33957105Y11269606D03*
X34457105Y11269606D03*
D31*
X35144605Y11957106D03*
X35144605Y12457106D03*
X35144605Y12957106D03*
X35144605Y13457106D03*
X35144605Y13957106D03*
X35144605Y14457106D03*
X35144605Y14957106D03*
X35144605Y15457106D03*
X35144605Y15957106D03*
X35144605Y16457106D03*
X35144605Y16957106D03*
X35144605Y17457106D03*
D30*
X34457105Y18144606D03*
X33957105Y18144606D03*
X33457105Y18144606D03*
X32957105Y18144606D03*
X32457105Y18144606D03*
X31957105Y18144606D03*
X31457105Y18144606D03*
X30957105Y18144606D03*
X30457105Y18144606D03*
X29957105Y18144606D03*
X29457105Y18144606D03*
X28957105Y18144606D03*
D31*
X28269605Y17457106D03*
X28269605Y16957106D03*
X28269605Y16457106D03*
X28269605Y15957106D03*
X28269605Y15457106D03*
X28269605Y14957106D03*
X28269605Y14457106D03*
X28269605Y13957106D03*
X28269605Y13457106D03*
X28269605Y12957106D03*
X28269605Y12457106D03*
X28269605Y11957106D03*
%TD*%
D32*
%TO.C,J4*%
X7387105Y18657106D03*
X7387105Y17857106D03*
D33*
X7387105Y16707106D03*
X7387105Y15707106D03*
X7387105Y15207106D03*
X7387105Y14207106D03*
D32*
X7387105Y13057106D03*
X7387105Y12257106D03*
X7387105Y12257106D03*
X7387105Y13057106D03*
D33*
X7387105Y13707106D03*
X7387105Y14707106D03*
X7387105Y16207106D03*
X7387105Y17207106D03*
D32*
X7387105Y17857106D03*
X7387105Y18657106D03*
D34*
X6812105Y19777106D03*
D35*
X2632105Y19777106D03*
D34*
X6812105Y11137106D03*
D35*
X2632105Y11137106D03*
%TD*%
D36*
%TO.C,C11*%
X26957105Y11977106D03*
X26957105Y12937106D03*
%TD*%
D37*
%TO.C,X2*%
X28607105Y8307106D03*
X30007105Y8307106D03*
%TD*%
D36*
%TO.C,C6*%
X25707105Y11977106D03*
X25707105Y12937106D03*
%TD*%
D15*
%TO.C,R2*%
X22007105Y6907106D03*
X22007105Y5887106D03*
%TD*%
D19*
%TO.C,C15*%
X29257105Y19707106D03*
X28297105Y19707106D03*
%TD*%
D15*
%TO.C,R5*%
X35957105Y9717106D03*
X35957105Y8697106D03*
%TD*%
D11*
%TO.C,C2*%
X20807105Y6867106D03*
X20807105Y5907106D03*
%TD*%
D13*
%TO.C,C17*%
X25227105Y6307106D03*
X26187105Y6307106D03*
%TD*%
D38*
%TO.C,C19*%
X15107105Y9207106D03*
X15107105Y10757106D03*
%TD*%
D11*
%TO.C,C5*%
X37957105Y15957106D03*
X37957105Y14997106D03*
%TD*%
M02*
