M48
; DRILL file {KiCad 8.0.2} date 2024-11-05T19:47:47-0300
; FORMAT={-:-/ absolute / metric / decimal}
; #@! TF.CreationDate,2024-11-05T19:47:47-03:00
; #@! TF.GenerationSoftware,Kicad,Pcbnew,8.0.2
; #@! TF.FileFunction,Plated,1,4,PTH
FMAT,2
METRIC
; #@! TA.AperFunction,Plated,PTH,ViaDrill
T1C0.300
; #@! TA.AperFunction,Plated,PTH,ViaDrill
T2C0.400
; #@! TA.AperFunction,Plated,PTH,ComponentDrill
T3C0.500
; #@! TA.AperFunction,Plated,PTH,ComponentDrill
T4C0.600
; #@! TA.AperFunction,Plated,PTH,ComponentDrill
T5C2.200
%
G90
G05
T1
X3.137Y21.707
X3.237Y9.007
X8.807Y18.607
X8.807Y12.207
X9.457Y16.557
X10.407Y13.507
X10.407Y12.607
X14.707Y11.807
X14.707Y8.107
X15.607Y11.807
X15.607Y8.107
X17.407Y13.907
X18.707Y19.707
X20.807Y5.167
X22.007Y5.127
X22.757Y11.757
X24.307Y10.557
X24.307Y9.407
X24.307Y8.507
X24.807Y12.007
X24.907Y18.507
X25.207Y7.077
X25.707Y13.707
X25.757Y22.957
X25.757Y21.957
X25.907Y17.092
X26.957Y15.957
X26.957Y13.707
X26.957Y11.157
X27.007Y20.707
X27.107Y19.707
X27.222Y9.707
X28.107Y23.657
X28.957Y23.657
X29.457Y16.957
X29.457Y14.707
X29.457Y12.707
X30.457Y16.207
X30.457Y13.507
X31.007Y8.907
X31.707Y16.957
X31.707Y12.457
X32.957Y16.207
X32.957Y13.457
X33.057Y19.407
X33.507Y10.082
X33.707Y7.622
X33.957Y16.957
X33.957Y14.707
X33.957Y12.707
X34.057Y19.407
X36.007Y19.992
X36.457Y13.437
X37.492Y16.807
X37.582Y17.796
X37.607Y13.407
X38.727Y14.957
X39.307Y21.007
X39.957Y11.477
X41.727Y14.957
X43.307Y16.907
X43.307Y15.007
X47.107Y13.207
X47.307Y18.707
X48.307Y13.207
X48.407Y18.707
X49.507Y18.707
X49.507Y13.207
T2
X0.707Y21.707
X0.707Y18.707
X0.707Y15.707
X0.707Y12.707
X0.707Y8.707
X0.707Y4.707
X0.707Y1.707
X3.707Y24.707
X3.707Y15.707
X3.707Y12.707
X6.707Y24.707
X6.707Y21.707
X7.707Y0.707
X9.707Y24.707
X15.707Y24.707
X15.707Y0.707
X18.707Y24.707
X18.707Y0.707
X20.707Y10.007
X21.707Y24.707
X21.707Y0.707
X24.707Y24.707
X24.707Y0.707
X27.707Y0.707
X30.707Y0.707
X32.707Y24.707
X33.707Y0.707
X35.707Y24.707
X36.707Y3.707
X36.707Y0.707
X38.707Y24.707
X39.707Y3.673
X39.707Y6.707
X39.707Y0.707
X41.707Y24.707
X43.707Y10.707
X43.707Y7.707
X46.707Y10.707
X46.707Y7.707
X49.707Y10.707
X49.707Y7.707
X49.707Y4.707
T3
X3.457Y5.957
X3.457Y4.707
X3.457Y3.457
X3.457Y2.207
T5
X12.457Y21.957
X12.457Y2.957
X44.207Y21.957
X44.457Y2.707
T4
G00X3.032Y19.777
M15
G01X2.232Y19.777
M16
G05
G00X3.032Y11.137
M15
G01X2.232Y11.137
M16
G05
G00X7.362Y19.777
M15
G01X6.262Y19.777
M16
G05
G00X7.362Y11.137
M15
G01X6.262Y11.137
M16
G05
M30
